<svg xmlns="http://www.w3.org/2000/svg" xmlns:xlink="http://www.w3.org/1999/xlink" width="2000" zoomAndPan="magnify" viewBox="0 0 1500 1499.999933" height="2000" preserveAspectRatio="xMidYMid meet" version="1.0"><defs><clipPath id="044fdec79e"><path d="M 172.578125 467.785156 L 1327.578125 467.785156 L 1327.578125 1032.535156 L 172.578125 1032.535156 Z M 172.578125 467.785156 " clip-rule="nonzero"/></clipPath></defs><g clip-path="url(#044fdec79e)"><path fill="#000000" d="M 1310.617188 927.96875 C 1289.4375 925.773438 1268.144531 923.644531 1246.851562 923.011719 C 1210.632812 921.933594 1174.195312 923.964844 1137.980469 923.0625 L 1172.953125 908.148438 C 1194.128906 897.597656 1241.695312 864.996094 1249.992188 842.796875 C 1254.488281 830.753906 1239.394531 831.328125 1230.1875 830 C 1147.664062 818.121094 1041.121094 820.328125 957.230469 823.285156 C 941.652344 823.832031 858.796875 825.011719 851.449219 833.722656 C 849.660156 835.84375 849.851562 837.144531 850.644531 839.625 C 853.859375 849.585938 873.488281 868.601562 881.941406 875.558594 C 902.03125 892.085938 925.429688 903.863281 948.679688 915.1875 L 966.144531 921.421875 L 813.972656 919.8125 L 814.058594 815.792969 C 813.652344 735.6875 814.253906 654.1875 813.917969 573.515625 C 813.992188 557.59375 819.558594 533.15625 817.164062 518.023438 C 815.945312 510.328125 803.640625 502.039062 798.414062 495.847656 C 791.679688 487.855469 785.710938 479.113281 778.925781 471.144531 C 754.65625 465.367188 728.847656 468.792969 704.574219 471.496094 L 702.699219 523.65625 L 665.640625 479.726562 C 641.808594 476.203125 617.929688 478.183594 594.175781 481.375 L 591.664062 483.769531 L 594.722656 918.179688 L 554.636719 918.179688 C 513.972656 846.960938 434.6875 818.171875 359.636719 857.328125 C 332.734375 871.363281 304.324219 894.988281 289.359375 921.554688 L 175.867188 923.933594 L 172.578125 928.773438 C 178.980469 936.472656 187.007812 930.878906 194.648438 931.128906 C 228.347656 932.230469 257.925781 928.914062 291.125 927.929688 C 336.488281 926.578125 381.851562 929.007812 426.933594 927.929688 C 442.21875 927.5625 457.714844 929.371094 472.753906 926.296875 L 565.269531 926.378906 C 564.886719 928.832031 562.175781 929.429688 560.394531 930.488281 C 544.804688 939.796875 520.601562 951.003906 503.683594 958.871094 C 495.828125 962.519531 469.917969 974.84375 463.042969 973.910156 C 461.523438 973.699219 459.667969 973.210938 459.355469 971.464844 C 462.371094 959.113281 465.792969 940.734375 446.6875 944.421875 C 432.890625 947.085938 443.472656 972.273438 436.902344 973.425781 L 414.738281 972.191406 C 418.265625 961.464844 419.386719 941.648438 402.847656 944.640625 C 390.71875 946.835938 391.1875 964.433594 391.828125 973.851562 L 368.917969 973.851562 C 370.441406 962.691406 376.210938 945.160156 359.878906 945.859375 C 345.695312 946.460938 348.0625 963.265625 347.640625 973.851562 L 334.035156 973.851562 C 334.351562 968.445312 334.550781 962.949219 333.199219 957.660156 C 332.570312 955.199219 331.648438 952.5625 329.851562 950.699219 C 328.714844 949.53125 327.167969 948.75 325.566406 948.625 C 308.300781 942.25 306.253906 960.222656 308.382812 973.84375 C 306.867188 974.296875 305.476562 974.671875 304.183594 974.960938 C 304.058594 971.785156 303.933594 968.601562 303.820312 965.429688 C 303.6875 962.085938 303.746094 958.613281 302.808594 955.375 C 302.054688 952.769531 300.59375 950.300781 298.292969 948.792969 C 296.304688 947.480469 293.777344 947.132812 291.554688 947.90625 L 291.382812 947.765625 C 284.894531 949.082031 283.136719 969.863281 283.835938 975.5 L 249.457031 977.132812 C 247.917969 963.207031 252.183594 943.5625 268.429688 941.257812 L 508.785156 941.175781 L 526.804688 944.382812 C 529.839844 939.507812 523.90625 936.257812 519.558594 935.253906 C 514.453125 934.078125 503.117188 933.167969 497.425781 932.84375 C 433.503906 929.253906 348.667969 929.636719 284.570312 932.84375 C 279.167969 933.117188 261.746094 934.285156 258.058594 935.785156 C 246.699219 940.402344 237.054688 965.660156 242.910156 977.097656 L 176.902344 982.289062 C 173.082031 983.414062 173.015625 988.722656 176.902344 989.9375 C 196.894531 987.769531 217.167969 989.648438 237.160156 988.5625 C 303.875 984.917969 367.792969 978.921875 435.234375 980.324219 C 440.945312 980.441406 446 982.488281 452.351562 980.414062 C 451.90625 983.285156 449.0625 983.234375 447.066406 984.113281 C 417.527344 997.167969 382.457031 1009.070312 351.253906 1017.582031 C 346.871094 1018.777344 331.441406 1020.875 329.628906 1022.144531 C 323.578125 1026.371094 330.648438 1029.960938 336.785156 1029.378906 C 345.933594 1028.523438 363.441406 1022.582031 373.019531 1019.714844 C 421.472656 1005.214844 474.441406 982.527344 520.019531 960.519531 C 533.601562 953.964844 565.308594 933.359375 576.660156 930.421875 C 588.757812 927.296875 609.453125 933.21875 622.519531 932.933594 L 472.074219 1027.222656 L 476.058594 1032.320312 C 478.660156 1032.554688 518.695312 1012.1875 522.707031 1008.945312 C 524.976562 1007.105469 525.4375 1006.535156 524.734375 1003.589844 L 633.398438 936.65625 C 688.382812 942.300781 743.382812 937.652344 798.496094 937.757812 C 846.933594 937.859375 896.796875 940.644531 945.628906 941.175781 L 1233.792969 944.265625 C 1241.199219 952.738281 1242.824219 964.484375 1242.683594 975.484375 L 1188.6875 975.484375 C 1189.242188 967.980469 1191.792969 962.078125 1189.25 954.453125 C 1187.121094 948.070312 1181.269531 946.253906 1177.417969 948.445312 C 1174.160156 949.058594 1171.875 952.222656 1170.714844 955.367188 C 1169.042969 959.898438 1168.445312 964.808594 1168.238281 969.613281 C 1168.1875 970.839844 1168.15625 972.066406 1168.144531 973.292969 C 1168.144531 973.964844 1168.070312 974.746094 1168.097656 975.484375 L 1131.425781 975.484375 C 1135.46875 963.316406 1132.71875 941.886719 1115.484375 948.90625 C 1104.796875 953.261719 1109.367188 966.316406 1108.523438 975.484375 L 1073.34375 975.484375 C 1069.699219 973.078125 1072.980469 969.441406 1072.589844 964.949219 C 1071.84375 956.335938 1070.476562 947.566406 1060.277344 947.492188 C 1043.65625 947.359375 1048.578125 963.96875 1047.980469 975.492188 L 1011.980469 975.492188 L 1011.980469 951.75 C 993.710938 938.082031 985.890625 958.167969 990.730469 973.832031 C 988.632812 973.078125 985.914062 975.484375 984.988281 975.484375 L 953.078125 975.484375 L 953.078125 951.742188 C 953.078125 943.660156 932.375 943.710938 930.210938 955.058594 C 929.042969 961.21875 930.359375 969.40625 931.800781 975.484375 L 905.621094 975.484375 L 905.621094 951.742188 C 905.621094 951.285156 900.871094 946.6875 899.53125 946.289062 C 884.617188 941.902344 882.378906 963.863281 885.269531 973.882812 C 882.882812 977.191406 863.007812 975.53125 858.152344 973.824219 C 860.671875 969.007812 860.710938 951.46875 857.769531 948.0625 C 853.503906 943.128906 842.234375 946.386719 840.519531 953.722656 C 839.34375 958.773438 842.144531 973.476562 840.1875 974.695312 L 815.621094 973.839844 L 815.621094 950.101562 C 815.621094 944.605469 797.691406 941.214844 795.902344 954.933594 C 795.148438 960.71875 796.597656 967.847656 795.984375 973.839844 L 769.804688 973.839844 C 773.472656 962.171875 774.0625 937.964844 755.742188 945.875 C 749.496094 950.664062 753.339844 967.070312 755.082031 973.839844 L 727.265625 973.839844 L 727.265625 950.101562 C 727.265625 947.242188 717.40625 944.847656 714.65625 944.878906 C 702.832031 945.019531 705.035156 966.28125 707.628906 973.839844 L 679.816406 973.839844 C 678.6875 965.261719 684.390625 944.929688 670.933594 946.066406 C 659.648438 947.019531 659.492188 965.394531 661.8125 973.832031 L 643.816406 973.851562 C 649.773438 936.988281 615.851562 939.300781 619.105469 973.675781 C 605.128906 977.132812 590.382812 975.398438 576.1875 974.03125 C 570.761719 977.089844 573.554688 982.503906 579.113281 982.105469 C 763.996094 981.234375 949.175781 982.238281 1133.820312 983.730469 C 1181.253906 984.113281 1228.914062 982.371094 1276.3125 983.597656 C 1281.773438 983.738281 1307.921875 988.664062 1309.761719 982.820312 C 1310.609375 981.1875 1308.667969 977.117188 1307.335938 977.117188 L 1254.96875 977.117188 C 1254.050781 977.117188 1251.316406 974.710938 1249.238281 975.457031 C 1254.457031 962.636719 1244.40625 936.832031 1229.980469 934.867188 C 1224.925781 934.179688 1221.6875 936.472656 1217.410156 936.257812 C 1214.238281 936.101562 1211.140625 934.585938 1207.585938 934.484375 C 1169.730469 933.40625 1131.65625 935.445312 1093.808594 934.535156 C 1095.300781 931.832031 1103.164062 931.394531 1106.003906 931.210938 C 1171.890625 926.949219 1241.679688 933.914062 1307.269531 936.257812 C 1311.054688 936.390625 1323.996094 936.914062 1326.191406 935.414062 C 1332.265625 925.011719 1317.144531 928.664062 1310.625 927.996094 Z M 1202.679688 1003.367188 C 1165.46875 1007.445312 1125.402344 1004.984375 1088.132812 1004.859375 C 928.089844 1004.347656 768.902344 995.726562 608.699219 998.445312 C 601.75 998.558594 559.0625 999.140625 557.089844 996.710938 L 557.15625 991.921875 C 560.054688 990.917969 562.914062 990.328125 566.015625 990.113281 C 637.402344 984.992188 721.257812 990.769531 793.46875 991.894531 C 884.707031 993.320312 975.691406 995.003906 1066.722656 998.445312 C 1109.773438 1002.953125 1160.820312 991.96875 1202.679688 996.660156 C 1210.558594 997.546875 1210.3125 1002.53125 1202.679688 1003.367188 Z M 291.132812 996.679688 C 282.996094 996.746094 274.960938 999.523438 265.847656 996.738281 C 265.308594 993.953125 266.46875 993.335938 268.6875 992.234375 C 278.019531 987.59375 336.652344 990.410156 351.808594 990.269531 C 365.15625 990.148438 382.878906 987.925781 395.929688 988.414062 C 405.707031 988.777344 406.328125 995.816406 397.636719 996.835938 C 367.078125 1000.410156 323.398438 996.429688 291.132812 996.6875 Z M 291.132812 996.679688 " fill-opacity="1" fill-rule="nonzero"/></g><path fill="#9d9d9d" d="M 543.992188 918.164062 C 520.832031 918.660156 497.558594 917.558594 474.390625 918.105469 C 442.691406 918.859375 411.339844 919.871094 379.621094 919.738281 C 353.160156 919.628906 326.570312 920.648438 300.179688 918.96875 C 319.71875 891.429688 351.019531 867.683594 382.796875 855.929688 C 436.003906 836.242188 490.957031 852.664062 527.59375 894.472656 C 529.457031 896.601562 545.597656 916.789062 543.992188 918.15625 Z M 1220.585938 847.753906 C 1129.601562 857.164062 1035.453125 850.746094 944.089844 851.03125 L 863.058594 843.695312 C 888.371094 877.789062 933.128906 902.695312 973.496094 914.914062 C 1055.589844 939.773438 1169.695312 924.570312 1228.804688 857.613281 C 1230.148438 856.085938 1238.921875 845.617188 1237.769531 844.496094 C 1232.085938 845.417969 1226.328125 847.152344 1220.578125 847.746094 Z M 872.148438 926.285156 L 640.535156 928.808594 L 1020.152344 932.917969 C 971.148438 927.238281 921.195312 930.375 872.148438 926.277344 Z M 764.898438 919.804688 L 766.464844 588.246094 L 771.453125 477.8125 C 752.066406 475.132812 733.050781 477.585938 713.585938 478.050781 L 710.902344 481.914062 L 710.089844 919.8125 L 764.90625 919.8125 Z M 599.628906 487.632812 L 601.261719 918.179688 C 615.695312 918.578125 630.257812 917.648438 644.703125 918.097656 C 648.820312 918.230469 658.546875 922.40625 660.046875 917.136719 C 659.765625 913.324219 658.273438 909.839844 658.40625 905.914062 C 661.652344 807.1875 657.164062 708.398438 658.605469 609.65625 C 659.199219 568.976562 659.714844 528.308594 660.160156 487.648438 C 640.101562 484.308594 619.777344 486.582031 599.628906 487.625 Z M 599.628906 487.632812 " fill-opacity="1" fill-rule="nonzero"/></svg>